<svg xmlns="http://www.w3.org/2000/svg" width="64" height="64" viewBox="0 0 64 64" fill="none">
  <rect width="64" height="64" rx="16" fill="#0F172A" />
  <path
    d="M16 22.5C16 19.4624 18.4624 17 21.5 17H29L33.5 21.5H42.5C45.5376 21.5 48 23.9624 48 27V42.5C48 45.5376 45.5376 48 42.5 48H21.5C18.4624 48 16 45.5376 16 42.5V22.5Z"
    fill="#F59E0B"
  />
  <path
    d="M24 15H34.2C35.2609 15 36.2783 15.4214 37.0284 16.1716L40.8284 19.9716C41.5786 20.7217 42 21.7391 42 22.8V43C42 45.2091 40.2091 47 38 47H24C21.7909 47 20 45.2091 20 43V19C20 16.7909 21.7909 15 24 15Z"
    fill="#FFF7ED"
  />
  <path d="M34 15V22H41" fill="#FDE68A" />
  <path
    d="M28 28H36M28 33H36M28 38H33"
    stroke="#94A3B8"
    stroke-width="3"
    stroke-linecap="round"
  />
</svg>
